<svg width="44" height="64" viewBox="0 0 44 64" fill="none" xmlns="http://www.w3.org/2000/svg">
<path d="M30 64V58H32V52H34V46L34.001 40.442C40.272 36.359 44 29.507 44 22C44 9.869 34.131 0 22 0C9.869 0 0 9.869 0 22C0 29.459 3.817 36.514 10 40.55V44V46V52H12V58H14V64H30ZM28 62H16V58H28V62ZM11.524 39.148C5.649 35.53 2 28.96 2 22C2 10.972 10.972 2 22 2C33.028 2 42 10.972 42 22C42 28.995 38.439 35.366 32.477 39.041L32 39.334V44H27.161L29.989 25.148L28.01 24.851L27.902 25.573L25.093 27.679L22 24.586L18.906 27.68L16.097 25.574L15.989 24.852L14.01 25.149L16.839 44H12V39.441L11.524 39.148ZM18.861 44L16.52 28.39L19.094 30.321L22 27.414L24.906 30.32L27.48 28.389L25.139 44H18.861ZM12 46H32V50H12V46ZM14 52H30V56H14V52Z" fill="#FD8558"/>
</svg>
